<svg width="36" height="40" viewBox="0 0 36 40" fill="none" xmlns="http://www.w3.org/2000/svg">
<path d="M35.5912 24.7905L34.8899 22.1378L27.6976 24.0338L24.5269 22.137V17.7457L27.9392 15.768L35.2969 17.7145L36 15.0618L31.3021 13.819L35.9982 11.0972L34.6188 8.72411L29.9775 11.4141L31.1918 6.81944L28.5351 6.11922L26.6215 13.3591L23.1509 15.3706L19.3582 13.1846V9.26748L24.7298 3.94034L22.7941 1.99326L19.3582 5.40065V0H16.6102V5.364L13.2375 1.99666L11.2945 3.93662L16.6102 9.2437V13.1845L12.8167 15.3712L9.42053 13.4126L9.42092 13.4124L7.49231 6.119L4.83559 6.81922L6.06779 11.4789L1.377 8.77342L0.00208499 11.1493L4.66615 13.8392L0.0289712 15.0617L0.730257 17.7143L8.03491 15.7887L8.03283 15.781L11.4426 17.7475V22.2213L8.01758 24.2061L0.730148 22.285L0.0288613 24.9377L4.65194 26.1564L0 28.8525L1.37942 31.2248L6.07789 28.5021L4.83625 33.1799L7.49209 33.8819L9.43666 26.5558L12.9021 24.5476L16.6103 26.6857V30.7559L11.2946 36.0629L13.2375 38.0029L16.6103 34.6356V40H19.3583V34.5988L22.7933 38.0065L24.7307 36.0594L19.3583 30.73V26.6858L23.1399 24.5056L26.6041 26.5781L28.112 33.6675L30.7992 33.0977L29.822 28.5032L34.1949 31.1193L35.6064 28.765L30.9901 26.0033L35.5912 24.7905ZM21.7789 22.1217L17.9843 24.309L14.1906 22.1217V17.748L17.9843 15.5606L21.7789 17.748V22.1217Z" fill="#6CA7FF"/>
</svg>
