<svg width="68" height="68" viewBox="0 0 68 68" fill="none" xmlns="http://www.w3.org/2000/svg">
<g filter="url(#filter0_d)">
<circle cx="34" cy="30" r="30" fill="#FF7931"/>
<circle cx="33.691" cy="30.0001" r="16.0103" stroke="white" stroke-width="2"/>
<circle cx="33.6909" cy="29.9999" r="7.87494" stroke="white" stroke-width="2"/>
<circle cx="21.4876" cy="30.3699" r="1.84895" fill="white"/>
<circle cx="45.8929" cy="30.3699" r="1.84895" fill="white"/>
<circle cx="43.3048" cy="22.6046" r="1.47916" fill="white"/>
<circle cx="37.3883" cy="18.1669" r="1.47916" fill="white"/>
<circle cx="29.9923" cy="18.1669" r="1.47916" fill="white"/>
<circle cx="24.0758" cy="22.6046" r="1.47916" fill="white"/>
<circle r="1.47916" transform="matrix(-1 0 0 1 43.3055 37.3961)" fill="white"/>
<circle r="1.47916" transform="matrix(-1 0 0 1 37.3885 41.8334)" fill="white"/>
<circle r="1.47916" transform="matrix(-1 0 0 1 29.9915 41.8334)" fill="white"/>
<circle r="1.47916" transform="matrix(-1 0 0 1 24.075 37.3961)" fill="white"/>
</g>
<defs>
<filter id="filter0_d" x="0" y="0" width="68" height="68" filterUnits="userSpaceOnUse" color-interpolation-filters="sRGB">
<feFlood flood-opacity="0" result="BackgroundImageFix"/>
<feColorMatrix in="SourceAlpha" type="matrix" values="0 0 0 0 0 0 0 0 0 0 0 0 0 0 0 0 0 0 127 0"/>
<feOffset dy="4"/>
<feGaussianBlur stdDeviation="2"/>
<feColorMatrix type="matrix" values="0 0 0 0 0 0 0 0 0 0 0 0 0 0 0 0 0 0 0.25 0"/>
<feBlend mode="normal" in2="BackgroundImageFix" result="effect1_dropShadow"/>
<feBlend mode="normal" in="SourceGraphic" in2="effect1_dropShadow" result="shape"/>
</filter>
</defs>
</svg>
