<svg width="36" height="39" viewBox="0 0 36 32" xmlns="http://www.w3.org/2000/svg">
<path d="M31.3659 19.0904L30.8266 17.0477L25.2965 18.5077L22.8585 17.047V13.6654L25.4823 12.1424L31.1395 13.6414L31.6802 11.5987L28.068 10.6416L31.6788 8.54562L30.6182 6.71818L27.0495 8.78964L27.9832 5.25144L25.9404 4.71223L24.4691 10.2875L21.8006 11.8364L18.8844 10.1531V7.13661L23.0146 3.03434L21.5262 1.53495L18.8844 4.15888V0H16.7715V4.13066L14.1782 1.53757L12.6843 3.03147L16.7715 7.1183V10.153L13.8547 11.8369L11.2434 10.3286L11.2437 10.3285L9.76079 4.71206L7.71805 5.25127L8.66548 8.83955L5.05877 6.75615L4.0016 8.5857L7.58777 10.6572L4.02228 11.5985L4.56149 13.6413L10.178 12.1584L10.1764 12.1525L12.7981 13.6668V17.1119L10.1647 18.6404L4.56141 17.161L4.02219 19.2038L7.57684 20.1423L4 22.2184L5.06062 24.0453L8.67325 21.9486L7.71856 25.5508L9.76062 26.0915L11.2558 20.4498L13.9203 18.9034L16.7715 20.5499V23.6842L12.6843 27.771L14.1782 29.2649L16.7715 26.6718V30.8028H18.8844V26.6435L21.5256 29.2676L23.0153 27.7682L18.8844 23.6642V20.5499L21.7921 18.871L24.4557 20.467L25.6151 25.9263L27.6813 25.4876L26.93 21.9495L30.2922 23.964L31.3775 22.151L27.8281 20.0244L31.3659 19.0904ZM20.7456 17.0353L17.828 18.7196L14.9111 17.0353V13.6672L17.828 11.9828L20.7456 13.6672V17.0353Z" fill="#6CA7FF"/>
</svg>
