<svg xmlns="http://www.w3.org/2000/svg" xmlns:xlink="http://www.w3.org/1999/xlink"><defs>
<filter id="filter0_d" x="0" y="0" width="68" height="68" filterUnits="userSpaceOnUse" color-interpolation-filters="sRGB">
<feFlood flood-opacity="0" result="BackgroundImageFix"/>
<feColorMatrix in="SourceAlpha" type="matrix" values="0 0 0 0 0 0 0 0 0 0 0 0 0 0 0 0 0 0 127 0"/>
<feOffset dy="4"/>
<feGaussianBlur stdDeviation="2"/>
<feColorMatrix type="matrix" values="0 0 0 0 0 0 0 0 0 0 0 0 0 0 0 0 0 0 0.25 0"/>
<feBlend mode="normal" in2="BackgroundImageFix" result="effect1_dropShadow"/>
<feBlend mode="normal" in="SourceGraphic" in2="effect1_dropShadow" result="shape"/>
</filter>
</defs><symbol id="icon-accessories" viewBox="0 0 60 60">
<circle cx="30" cy="30" r="30" fill="#FF7931"/>
<path d="M33.8887 14.8456V25.1529C33.8887 25.2172 33.8887 25.346 33.8887 25.4103C33.6379 26.4403 32.0071 27.2127 30.0628 27.2127C28.1184 27.2127 26.4877 26.4403 26.2368 25.4103C26.2368 25.346 26.2368 25.2816 26.2368 25.1529V14.6605C26.2368 14.5962 26.2368 14.4674 26.2995 14.403C26.6131 13.6306 28.1812 13.0513 30.1255 13.0513C32.0698 13.0513 33.7114 13.6084 33.795 14.403C33.795 14.403 33.8887 14.7168 33.8887 14.8456Z" stroke="white" stroke-width="2" stroke-miterlimit="10"/>
<path d="M29.9992 13.0514C29.5602 13.0514 29.2466 12.6651 29.2466 12.2789V10.6697C29.2466 10.2191 29.6229 9.89722 29.9992 9.89722C30.4383 9.89722 30.7519 10.2834 30.7519 10.6697V12.2789C30.7519 12.7295 30.4383 13.0514 29.9992 13.0514Z" fill="white"/>
<path d="M29.2465 11.1204C29.2465 11.1204 28.9956 12.4721 26.9258 13.1158H29.9991L29.2465 11.1204Z" fill="white"/>
<path d="M30.7517 11.1204C30.7517 11.1204 31.0026 12.4721 33.0723 13.1158H29.999L30.7517 11.1204Z" fill="white"/>
<path d="M32.0698 27.0195H27.9302V29.1437H32.0698V27.0195Z" fill="white" fill-opacity="0.7"/>
<path d="M29.9999 30.4956C32.979 30.4956 35.3939 30.1497 35.3939 29.7231C35.3939 29.2965 32.979 28.9507 29.9999 28.9507C27.0209 28.9507 24.606 29.2965 24.606 29.7231C24.606 30.1497 27.0209 30.4956 29.9999 30.4956Z" stroke="white" stroke-width="2" stroke-miterlimit="10"/>
<path d="M24.606 29.4014V33.1348" stroke="white" stroke-width="2" stroke-miterlimit="10"/>
<path d="M35.394 29.7229V33.392" stroke="white" stroke-width="2" stroke-miterlimit="10"/>
<path d="M38.9689 33.9072C38.9689 34.6153 34.9548 35.7739 29.9998 35.7739C25.0449 35.7739 21.0308 34.6796 21.0308 33.9072C21.0308 33.6497 23.1005 32.5554 24.6058 32.5554C25.6094 32.8129 28.4945 33.0704 29.9998 33.0704C31.5051 33.0704 34.453 32.8129 35.3938 32.5554C36.9618 32.6198 38.9689 33.6497 38.9689 33.9072Z" stroke="white" stroke-width="2" stroke-miterlimit="10"/>
<path d="M35.3939 35.3235V41.0524C35.3939 41.6318 32.9478 42.0823 29.9999 42.0823C27.0521 42.0823 24.606 41.6318 24.606 41.0524V35.3235" stroke="white" stroke-width="2" stroke-miterlimit="10"/>
<path d="M26.1113 41.5671V47.3604" stroke="white" stroke-width="2" stroke-miterlimit="10"/>
<path d="M33.8887 41.5671V47.3604" stroke="white" stroke-width="2" stroke-miterlimit="10"/>
<path d="M31.0036 49.4848H28.9965C28.5575 49.4848 28.1812 49.0986 28.1812 48.648V42.0823H31.7562V48.648C31.819 49.0986 31.4426 49.4848 31.0036 49.4848Z" stroke="white" stroke-width="2" stroke-miterlimit="10"/>
</symbol><symbol id="icon-adress-arrow" viewBox="0 0 35 35">
<path d="M13.6561 23.7113L12.8073 24.24L13.6561 23.7113C13.372 23.2552 12.9164 22.9327 12.392 22.8163L12.1752 23.7925L12.3919 22.8163L1.49747 20.3979L23.9518 7.82864L19.5566 33.1835L13.6561 23.7113Z" stroke="#A8A8A8" stroke-width="2"/>
</symbol><symbol id="icon-arrow-filter" viewBox="0 0 14 10">
<path fill-rule="evenodd" clip-rule="evenodd" d="M2.85 4.02663L5.71981 1.05L4.66981 0L0 4.77663L4.4544 9.21657L5.5044 8.16657L2.85 5.52663L13.2444 5.55263V4.05263L2.85 4.02663Z" fill="#48494D"/>
</symbol><symbol id="icon-arrow-left" viewBox="0 0 15 23">
<path fill-rule="evenodd" clip-rule="evenodd" d="M13.3289 22.5C13.6017 22.5 13.8746 22.4061 14.0828 22.2178C14.4984 21.8411 14.4984 21.2304 14.0828 20.8536L3.46724 11.2499L14.0828 1.64621C14.4984 1.26949 14.4984 0.658773 14.0828 0.282056C13.6664 -0.0940185 12.9914 -0.0940185 12.575 0.282056L1.20628 10.5678C0.790615 10.9446 0.790615 11.5553 1.20628 11.932L12.575 22.2178C12.7832 22.4061 13.056 22.5 13.3289 22.5Z" fill="#A8A8A8"/>
</symbol><symbol id="icon-arrow-triangle" viewBox="0 0 6 11">
<path d="M0.228824 9.68974C-0.0650263 9.97927 -0.0762935 10.4603 0.203658 10.7642C0.48361 11.0681 0.948767 11.0798 1.24262 10.7903C1.24262 10.7903 5.77719 6.25316 5.78955 6.23998C6.07934 5.92646 6.06851 5.42934 5.76535 5.12964L1.24266 0.606678C0.949277 0.316646 0.484101 0.327494 0.203658 0.630907C-0.0767846 0.93432 -0.0662956 1.4154 0.227086 1.70544L3.80669 5.34715C3.99789 5.54166 3.99792 5.85351 3.80677 6.04807L0.228824 9.68974Z" fill="#C4C4C4"/>
</symbol><symbol id="icon-arrow" viewBox="0 0 15 9">
<path d="M13.3809 4.41931L9.39833 8.54687M13.3809 4.41931L9.33579 0.514406M13.3809 4.41931L0.247739 4.65257"/>
</symbol><symbol id="icon-arrowhead" viewBox="0 0 14 10">
<path d="M11.1215 2.34289C11.446 2.03332 11.9851 2.02145 12.3256 2.31638C12.6662 2.61131 12.6792 3.10135 12.3548 3.41093C12.3548 3.41093 7.2703 8.18812 7.25554 8.20114C6.90419 8.50644 6.34709 8.49502 6.01123 8.17564L0.942587 3.41097C0.617562 3.10189 0.62972 2.61182 0.969739 2.31638C1.30976 2.02093 1.84888 2.03198 2.17391 2.34106L6.30843 6.16157C6.49998 6.33858 6.79542 6.33861 6.98701 6.16165L11.1215 2.34289Z" fill="#D6D6D6"/>
</symbol><symbol id="icon-autochemistry-2" viewBox="0 0 97 97">
<circle cx="48.5" cy="48.5" r="48.5" fill="#FF7931"/>
</symbol><symbol id="icon-autochemistry" viewBox="0 0 60 60">
<circle cx="30" cy="30" r="30" fill="#FF7931"/>
<path d="M37.7327 14.2269C37.7327 14.2269 37.7327 15.6496 38.2894 16.6393C38.6605 17.2578 40.578 19.9795 41.7533 21.4022C42.4956 22.2681 42.31 23.1341 42.31 23.3197V47.2578C42.31 47.8145 41.8152 48.1857 41.1347 48.1857H18.1863C17.5677 48.1857 17.3203 47.8145 17.3203 47.2578V26.8455C17.3203 24.9279 17.9389 23.1341 19.7945 21.897L30.9904 16.5774C31.9182 16.1444 32.5368 15.3403 32.5987 14.4743C32.5987 14.3506 32.5987 14.2888 32.5987 14.165H37.7327V14.2269Z" stroke="white" stroke-width="3" stroke-miterlimit="10"/>
<path d="M37.7324 14.5362H32.1654C31.7943 14.5362 31.5469 14.227 31.5469 13.9177V11.1342C31.5469 10.763 31.8562 10.5156 32.1654 10.5156H37.7324C38.1036 10.5156 38.351 10.8249 38.351 11.1342V13.9177C38.351 14.227 38.0417 14.5362 37.7324 14.5362Z" stroke="white" stroke-width="3" stroke-miterlimit="10"/>
<path d="M26.5991 38.0415H38.9703" stroke="white" stroke-width="3" stroke-miterlimit="10"/>
<path d="M26.5991 42.9897H34.6404" stroke="white" stroke-width="3" stroke-miterlimit="10"/>
</symbol><symbol id="icon-box-hamburger" viewBox="0 0 17 17">
<path d="M10.6352 3.14282H16.5358V15.1641C16.5358 15.6815 16.0699 16 15.5653 16H1.35721C0.852555 16 0.464355 15.6019 0.464355 15.0844V3.14282H6.28734" stroke="#E5E5E5" stroke-width="0.8" stroke-miterlimit="10"/>
<path d="M10.8496 3.14286H16.4809C16.5197 3.14286 16.5585 3.11088 16.5197 3.07889L14.4226 1H2.57758L0.480441 3.07889C0.441605 3.11088 0.480444 3.14286 0.51928 3.14286H6.1505" stroke="#E5E5E5" stroke-width="0.8" stroke-miterlimit="10"/>
<path d="M11.1784 3.14286L10.2468 1H6.84613L5.82129 3.14286" stroke="#E5E5E5" stroke-width="0.8" stroke-miterlimit="10"/>
<path d="M11.1784 3.14282V7.42854L8.56854 5.92274L5.82129 7.42854V3.14282" stroke="#E5E5E5" stroke-width="0.8" stroke-miterlimit="10"/>
<path d="M10.4508 11.7143H6.58616C6.14334 11.7143 5.82129 11.276 5.82129 10.7889V10.4967C5.82129 9.96102 6.1836 9.57141 6.58616 9.57141H10.4105C10.8533 9.57141 11.1754 10.0097 11.1754 10.4967V10.7889C11.2156 11.3247 10.8533 11.7143 10.4508 11.7143Z" stroke="#E5E5E5" stroke-width="0.8" stroke-miterlimit="10"/>
</symbol><symbol id="icon-burger" viewBox="0 0 33 28">
<rect y="0.831909" width="33" height="3" rx="1.5" fill="#C4C4C4"/>
<rect y="12.8319" width="33" height="3" rx="1.5" fill="#C4C4C4"/>
<rect y="24.8319" width="33" height="3" rx="1.5" fill="#C4C4C4"/>
</symbol><symbol id="icon-cart" viewBox="0 0 30 28">
<path d="M0 1.93616H3.88425C4.33141 1.93616 4.72423 2.23303 4.84628 2.66321L9.07372 17.5635C9.19577 17.9937 9.58859 18.2906 10.0358 18.2906H24.7568C25.2075 18.2906 25.6025 17.9892 25.7214 17.5545L28.6542 6.83436C28.8283 6.19804 28.3494 5.57048 27.6897 5.57048H5.67111"/>
<path d="M15 23.9125C15 25.3568 13.8602 26.49 12.5 26.49C11.1398 26.49 10 25.3568 10 23.9125C10 22.4682 11.1398 21.335 12.5 21.335C13.8602 21.335 15 22.4682 15 23.9125Z"/>
<path d="M24 23.9125C24 25.3568 22.8602 26.49 21.5 26.49C20.1398 26.49 19 25.3568 19 23.9125C19 22.4682 20.1398 21.335 21.5 21.335C22.8602 21.335 24 22.4682 24 23.9125Z"/>
</symbol><symbol id="icon-check" viewBox="0 0 8 6">
<path fill-rule="evenodd" clip-rule="evenodd" d="M2.54545 4.74627L0.636364 2.86567L0 3.49254L2.54545 6L8 0.626866L7.36364 0L2.54545 4.74627Z" fill="white"/>
</symbol><symbol id="icon-clock" viewBox="0 0 28 28">
<path fill-rule="evenodd" clip-rule="evenodd" d="M25.2 13.985C25.2 8.26735 20.9248 3.54933 15.4 2.85965V6.04525C15.4 6.81928 14.7732 7.44675 14 7.44675C13.2268 7.44675 12.6 6.81928 12.6 6.04525V2.30986C12.6 0.943199 13.7847 -0.0309289 14.9364 0.000750769C15.0048 0.0026329 15.0729 0.00895811 15.1409 0.0152728C15.1635 0.0173713 15.1861 0.0194688 15.2087 0.0214016C22.3748 0.63485 28 6.65228 28 13.985C28 21.7253 21.732 28 14 28C6.26801 28 0 21.7253 0 13.985C0 10.2186 1.49285 6.68527 4.10051 4.07481C4.64724 3.52749 5.53367 3.52749 6.08041 4.07481C6.62714 4.62213 6.62714 5.50952 6.08041 6.05684C3.99265 8.14685 2.8 10.9696 2.8 13.985C2.8 20.1772 7.81441 25.197 14 25.197C20.1856 25.197 25.2 20.1772 25.2 13.985ZM12.3929 15.6795C12.2632 15.5496 12.1519 15.4083 12.0591 15.2587L12.0563 15.2615L7.41486 7.77871C7.33329 7.6472 7.37366 7.47438 7.50503 7.39272C7.59549 7.33649 7.70998 7.33649 7.80044 7.39272L15.275 12.039L15.2722 12.0419C15.4217 12.1348 15.563 12.2462 15.6928 12.3762C16.604 13.2884 16.604 14.7673 15.6928 15.6795C14.7816 16.5917 13.3042 16.5917 12.3929 15.6795Z" fill="#C4C4C4"/>
</symbol><symbol id="icon-electronics" viewBox="0 0 60 60">
<circle cx="30" cy="30" r="30" fill="#FF7931"/>
<rect x="14.6079" y="26.9792" width="31.4021" height="16.5567" stroke="white" stroke-width="2"/>
<rect x="12.1338" y="20.7939" width="36.3505" height="2.3299" rx="1.16495" stroke="white" stroke-width="2"/>
<rect x="21.3399" y="15.1546" width="17.9381" height="1.85567" stroke="white" stroke-width="1.85567"/>
<path d="M15.4639 15.7732C15.4639 14.9191 16.1562 14.2268 17.0103 14.2268C17.8643 14.2268 18.5567 14.9191 18.5567 15.7732V17.9381H15.4639V15.7732Z" fill="white"/>
<path d="M42.062 16.0825C42.062 15.0576 42.8928 14.2268 43.9177 14.2268C44.9425 14.2268 45.7734 15.0576 45.7734 16.0825V17.9381H42.062V16.0825Z" fill="white"/>
<rect x="37.5732" y="31.5994" width="1.10888" height="7.02288" rx="0.554438" fill="white"/>
<rect x="34.6167" y="35.665" width="1.10888" height="7.02288" rx="0.554438" transform="rotate(-90 34.6167 35.665)" fill="white"/>
<rect x="19.1753" y="35.8765" width="1.23711" height="6.80412" rx="0.618557" transform="rotate(-90 19.1753 35.8765)" fill="white"/>
</symbol><symbol id="icon-filter" viewBox="0 0 15 15">
<path d="M13.9782 1.0314L9.50357 7.48153C9.50124 7.48488 9.5 7.48886 9.5 7.49294V10.4722C9.5 10.4775 9.49789 10.4826 9.49413 10.4864L5.53413 14.4383C5.52152 14.4509 5.5 14.4419 5.5 14.4241V7.49294C5.5 7.48886 5.49876 7.48488 5.49643 7.48153L1.02178 1.0314C1.01258 1.01814 1.02207 1 1.03822 1H13.9618C13.9779 1 13.9874 1.01814 13.9782 1.0314Z" stroke="#48494D"/>
</symbol><symbol id="icon-good-cart" viewBox="0 0 22 26">
<path d="M1 6.53846V25H21V6.53846H1ZM5.54545 6.53846C5.54545 6.53846 5.54545 1 11 1C16.4545 1 16.4545 6.53846 16.4545 6.53846" fill="#FF7931"/>
<path d="M5.54545 6.53846C5.54545 6.53846 5.54545 1 11 1C16.4545 1 16.4545 6.53846 16.4545 6.53846M1 6.53846V25H21V6.53846H1Z" stroke="white" stroke-width="2" stroke-linecap="round" stroke-linejoin="round"/>
</symbol><symbol id="icon-heart-goods" viewBox="0 0 27 24">
<path fill-rule="evenodd" clip-rule="evenodd" d="M7.36656 1C3.47849 1 0.392496 4.56658 1.10209 9.68573C1.71793 14.1286 12.3223 23 13.5 23C14.6777 23 25.2821 14.1286 25.8979 9.68573C26.6075 4.56647 23.5215 1 19.6334 1C17.0414 1 15.0222 2.0898 13.5 4.26939C11.9778 2.0898 9.9586 1 7.36656 1Z" stroke="black" stroke-opacity="0.3" stroke-width="2"/>
</symbol><symbol id="icon-heart-hamburger" viewBox="0 0 19 17">
<path fill-rule="evenodd" clip-rule="evenodd" d="M5.32926 1C2.68537 1 0.586897 3.43176 1.06942 6.92209C1.48819 9.9513 8.69918 16 9.5 16C10.3008 16 17.5118 9.9513 17.9306 6.92209C18.4131 3.43169 16.3146 1 13.6707 1C11.9081 1 10.5351 1.74304 9.5 3.22913C8.46489 1.74304 7.09185 1 5.32926 1Z" stroke="#E5E5E5"/>
</symbol><symbol id="icon-heart" viewBox="0 0 27 25">
<path fill-rule="evenodd" clip-rule="evenodd" d="M7.36656 1.2063C3.47849 1.2063 0.392496 4.77288 1.10209 9.89202C1.71793 14.3349 12.3223 23.2063 13.5 23.2063C14.6777 23.2063 25.2821 14.3349 25.8979 9.89202C26.6075 4.77277 23.5215 1.2063 19.6334 1.2063C17.0414 1.2063 15.0222 2.2961 13.5 4.47569C11.9778 2.2961 9.9586 1.2063 7.36656 1.2063Z"/>
</symbol><symbol id="icon-house-hamburger" viewBox="0 0 15 18">
<path d="M5.83333 11.0286C5.55719 11.0286 5.33333 11.2524 5.33333 11.5286V16.1C5.33333 16.3761 5.10948 16.6 4.83333 16.6H1.5C1.22386 16.6 1 16.3761 1 16.1V6.8014C1 6.65543 1.06378 6.51676 1.1746 6.42177L7.1746 1.27891C7.36185 1.11842 7.63815 1.11842 7.8254 1.27891L13.8254 6.42177C13.9362 6.51676 14 6.65543 14 6.8014V16.1C14 16.3761 13.7761 16.6 13.5 16.6H10.1667C9.89052 16.6 9.66667 16.3761 9.66667 16.1V11.5286C9.66667 11.2524 9.44281 11.0286 9.16667 11.0286H5.83333Z" stroke="#E5E5E5" stroke-linecap="round" stroke-linejoin="round"/>
</symbol><symbol id="icon-login-hamburger" viewBox="0 0 16 17">
<path d="M8 9.69444C9.75 9.69444 11.5 8.22222 11.5 5.44444C11.5 2.66667 10.3333 1 8 1C5.66667 1 4.5 3.25 4.5 5.44444C4.5 8.22222 6.25 9.69444 8 9.69444ZM8 9.69444C11.5 9.69444 15 12.625 15 16H1C1 13 4.5 9.69444 8 9.69444Z" stroke="#E5E5E5" stroke-linecap="round" stroke-linejoin="round"/>
</symbol><symbol id="icon-login" viewBox="0 0 21 25">
<path d="M10.3478 0.831909C6.35825 0.831909 3.10435 4.04643 3.10435 7.98771C3.10435 10.4355 4.36549 12.6078 6.27337 13.8976C2.57079 15.455 0 19.0888 0 23.3216H2.06957C2.06957 18.7573 5.72768 15.1435 10.3478 15.1435C14.968 15.1435 18.6261 18.7573 18.6261 23.3216H20.6957C20.6957 19.0888 18.1249 15.455 14.4223 13.8976C16.3302 12.6078 17.5913 10.4355 17.5913 7.98771C17.5913 4.04643 14.3374 0.831909 10.3478 0.831909ZM10.3478 2.87642C13.2177 2.87642 15.5217 5.15254 15.5217 7.98771C15.5217 10.8229 13.2177 13.099 10.3478 13.099C7.47792 13.099 5.17391 10.8229 5.17391 7.98771C5.17391 5.15254 7.47792 2.87642 10.3478 2.87642Z"/>
<ellipse cx="1.03478" cy="23.3216" rx="1.03478" ry="1.02226"/>
<ellipse cx="19.6608" cy="23.3216" rx="1.03478" ry="1.02226"/>
</symbol><symbol id="icon-logo" viewBox="0 0 102 52">
<path d="M36.1335 8.7926C34.8309 10.6782 33.7696 12.7524 32.9977 14.968H7.8635C1.92969 14.4495 0 8.7926 0 8.7926H36.1335Z" fill="#48494D"/>
<path d="M32.1189 32.2592H17.292C11.3127 31.7406 9.36816 26.0837 9.36816 26.0837H30.7577C30.9036 28.2522 31.3897 30.3264 32.1189 32.2592Z" fill="#48494D"/>
<path d="M37.4716 38.4346H25.5573C19.3999 38.0198 17.3975 33.4943 17.3975 33.4943H33.3667C34.4179 35.2668 35.7696 36.9638 37.4716 38.4346Z" fill="#48494D"/>
<path d="M31.3815 23.2836C31.3815 23.3778 31.3815 23.5193 31.3815 23.6135H12.0233C5.97995 23.095 4.01465 17.4381 4.01465 17.4381H32.1185C31.6271 19.2766 31.3815 21.2565 31.3815 23.2836Z" fill="#48494D"/>
<path d="M69.8056 11.63C67.5559 8.18234 64.6064 6.32239 61.5068 6.32239C59.657 6.32239 57.8573 7.00286 56.2075 8.31843C57.3074 9.18035 58.3072 10.2691 59.2071 11.63C61.6568 15.3046 63.0066 20.2039 63.0066 25.4662C63.0066 30.7285 61.6568 35.6279 59.2071 39.3024C58.3072 40.6633 57.3074 41.7974 56.2075 42.614C57.8573 43.9296 59.657 44.61 61.5068 44.61C64.5564 44.61 67.506 42.7047 69.8056 39.3024C72.2553 35.6279 73.6051 30.7285 73.6051 25.4662C73.6051 20.2039 72.2553 15.3046 69.8056 11.63Z" fill="#FF7931"/>
<path d="M61.5606 0.146973C51.9385 0.146973 44.1631 11.4907 44.1631 25.4662C44.1631 39.4417 51.9871 50.7855 61.5606 50.7855C71.1827 50.7855 78.9581 39.4417 78.9581 25.4662C79.0067 11.4907 71.1827 0.146973 61.5606 0.146973ZM69.822 39.1241C67.6351 42.5726 64.7679 44.433 61.755 44.433C58.7906 44.433 55.9234 42.5272 53.688 39.1241C51.3068 35.4487 49.9946 30.5482 49.9946 25.2847C49.9946 20.0212 51.3068 15.1207 53.688 11.4453C55.8748 7.99685 58.742 6.13647 61.755 6.13647C64.7193 6.13647 67.5865 8.04222 69.822 11.4453C72.2032 15.1207 73.5153 20.0212 73.5153 25.2847C73.5153 30.5028 72.2032 35.4487 69.822 39.1241Z" fill="#48494D"/>
<path d="M45.1304 25.4662C45.1304 11.7176 53.0219 0.509973 62.8989 0.146973C62.7462 0.146973 62.5935 0.146973 62.3898 0.146973C52.3091 0.146973 44.1631 11.4907 44.1631 25.4662C44.1631 39.4417 52.36 50.7855 62.3898 50.7855C62.5425 50.7855 62.6953 50.7855 62.8989 50.7855C53.0219 50.4225 45.1304 39.2149 45.1304 25.4662Z" fill="#FF7931"/>
<path d="M61.3425 45.6617H60.9063C60.8578 45.6617 60.7609 45.6617 60.7124 45.6617L60.5185 45.6159L60.3247 45.57H60.2277C60.1792 45.57 60.1792 45.57 60.1308 45.57L59.6946 45.4783C59.6461 45.4783 59.5491 45.4325 59.5007 45.4325L59.3068 45.3866L59.1129 45.3408C59.0645 45.3408 58.9675 45.2949 58.9191 45.2491L58.5313 45.1115L58.1436 44.9281C58.0951 44.8823 57.9981 44.8823 57.9497 44.8364L57.7558 44.7447C57.6589 44.6989 57.5135 44.6072 57.4165 44.5613L57.0772 44.3321L56.8834 44.2404L56.738 44.1028L56.3987 43.8736C56.3017 43.7819 56.2048 43.6902 56.1079 43.5985C55.914 43.4151 55.7201 43.2317 55.5262 43.0483C54.7507 42.3147 54.0722 41.4894 53.4906 40.6182C52.9089 39.7471 52.4242 38.8301 51.988 37.9131C51.5518 36.9502 51.2125 35.9874 50.8732 35.0245C50.7278 34.5202 50.5824 34.0617 50.437 33.5573L50.2431 32.8237C50.1947 32.5945 50.1462 32.3194 50.0977 32.0901C49.9039 31.0814 49.7585 30.0727 49.6615 29.064C49.5646 28.0553 49.5161 27.0466 49.5161 25.9921C49.5161 24.9834 49.5646 23.9747 49.6615 22.9201C49.7585 21.9114 49.9039 20.9027 50.0977 19.894C50.1462 19.6647 50.1947 19.3897 50.2431 19.1604L50.437 18.4268C50.5824 17.9224 50.6794 17.4181 50.8732 16.9596C51.1641 15.9967 51.5518 15.0339 51.988 14.071C52.4242 13.154 52.9089 12.237 53.4906 11.3659C54.0722 10.4947 54.7507 9.66944 55.5262 8.93584C55.7201 8.75244 55.914 8.56904 56.1079 8.38564C56.2048 8.29394 56.3017 8.20224 56.3987 8.11054L56.738 7.88129L56.8834 7.74374L57.0772 7.65204L57.4165 7.42279C57.5135 7.37694 57.6589 7.28524 57.7558 7.23939L57.9497 7.14769C57.9981 7.10184 58.0951 7.10184 58.1436 7.05599L58.5313 6.87259L58.9191 6.73504C58.9675 6.68919 59.0645 6.68919 59.1129 6.64334L59.3068 6.59749L59.5007 6.55164C59.5491 6.55164 59.6461 6.50579 59.6946 6.50579L60.1308 6.41409C60.1792 6.41409 60.1792 6.41409 60.2277 6.41409H60.3247L60.5185 6.36824L60.7124 6.32239C60.7609 6.32239 60.8578 6.32239 60.9063 6.32239H61.3425H61.7787C61.8272 6.32239 61.9241 6.32239 61.9726 6.32239L62.1665 6.36824L62.3603 6.41409H62.4573C62.5057 6.41409 62.5057 6.41409 62.5542 6.41409L62.9904 6.50579C63.0389 6.50579 63.1358 6.55164 63.1843 6.55164L63.3782 6.59749L63.5721 6.64334C63.6205 6.64334 63.7175 6.68919 63.7659 6.68919L64.1537 6.82674L64.5414 7.01014C64.5899 7.05599 64.6868 7.05599 64.7353 7.10184L64.9292 7.19354C65.0746 7.23939 65.1715 7.33109 65.3169 7.37694L65.6562 7.60619L65.8501 7.69789L65.9955 7.83544L66.3348 8.06469C66.4317 8.15639 66.5287 8.24809 66.6741 8.33979C66.9164 8.52319 67.1103 8.70659 67.3042 8.88999C68.1281 9.62359 68.8067 10.4489 69.3883 11.32C70.0184 12.1912 70.5516 13.1082 70.9878 14.0252C71.424 14.988 71.8118 15.9509 72.151 16.9137C72.4903 17.9224 72.7327 18.8853 72.975 19.9399C73.1689 20.9486 73.3628 21.9573 73.4597 23.0118C73.5566 24.0205 73.6051 25.0751 73.6051 26.0838C73.6051 27.0925 73.5566 28.147 73.4597 29.1557C73.3628 30.1644 73.2174 31.219 72.975 32.2277C72.5388 34.2451 71.9087 36.2625 70.9878 38.1423C70.5516 39.1052 69.9699 39.9763 69.3883 40.8475C68.7582 41.7186 68.0797 42.5439 67.3042 43.2775C67.1103 43.4609 66.9164 43.6443 66.6741 43.8277C66.5771 43.9194 66.4802 44.0111 66.3348 44.1028L65.9955 44.3321L65.8501 44.4696L65.6562 44.5613L65.3169 44.7906C65.1715 44.8364 65.0746 44.9281 64.9292 44.974L64.7353 45.0657C64.6868 45.1115 64.5899 45.1115 64.5414 45.1574L64.1537 45.3408L63.7659 45.4783C63.7175 45.4783 63.6205 45.5242 63.5721 45.5242L63.3782 45.57L63.1843 45.6159C63.1358 45.6159 63.0389 45.6617 62.9904 45.6617L62.5542 45.7534C62.5057 45.7534 62.5057 45.7534 62.4573 45.7534H62.3603L62.1665 45.7993L61.9726 45.8451C61.9241 45.8451 61.8272 45.8451 61.7787 45.8451L61.3425 45.6617ZM61.3425 44.8823H61.7302C61.7787 44.8823 61.8757 44.8823 61.9241 44.8823L62.118 44.8364L62.3119 44.7906H62.4088C62.4573 44.7906 62.4573 44.7906 62.5058 44.7906L62.8935 44.6989C62.942 44.6989 62.9904 44.653 63.0874 44.653L63.2812 44.6072L63.4751 44.5613C63.5236 44.5613 63.5721 44.5155 63.669 44.5155L64.0083 44.3779L64.3476 44.2404C64.396 44.1945 64.4445 44.1945 64.5414 44.1487L64.6868 44.057C64.7838 44.0111 64.9292 43.9194 65.0261 43.8736L65.3654 43.6902L65.5108 43.5985L65.6562 43.5068L65.947 43.2775C66.044 43.1858 66.1409 43.14 66.2378 43.0483C66.4317 42.9107 66.6256 42.7273 66.8195 42.5439C67.5465 41.8562 68.1766 41.0767 68.7098 40.2514C69.2429 39.4261 69.7276 38.555 70.1638 37.638C70.6 36.721 70.9393 35.804 71.2301 34.8411C71.3755 34.3826 71.5209 33.8783 71.6179 33.4198L71.8118 32.6862C71.8602 32.4569 71.9087 32.1818 71.9572 31.9526C72.151 30.9897 72.2964 29.981 72.3934 29.0182C72.4903 28.0095 72.5388 27.0466 72.5388 26.0379C72.5388 25.0292 72.4903 24.0664 72.3934 23.0577C72.2964 22.049 72.151 21.0861 71.9572 20.1233C71.9087 19.894 71.8602 19.6189 71.8118 19.3897L71.6179 18.6561C71.4725 18.1517 71.3755 17.6932 71.2301 17.2347C70.9393 16.2718 70.6 15.3548 70.1638 14.4378C69.7276 13.5208 69.2429 12.6497 68.7098 11.8244C68.1766 10.9991 67.5465 10.2196 66.8195 9.53189C66.6256 9.34849 66.4802 9.16509 66.2378 9.02754C66.1409 8.93584 66.044 8.84414 65.947 8.79829L65.6562 8.56904L65.5108 8.47734L65.3654 8.38564L65.0261 8.20224C64.9292 8.15639 64.7838 8.06469 64.6868 8.01884L64.5414 7.92714C64.493 7.88129 64.4445 7.88129 64.3476 7.83544L64.0083 7.69789L63.669 7.56034C63.6205 7.56034 63.5721 7.51449 63.4751 7.51449L63.2812 7.46864L63.0874 7.42279C63.0389 7.42279 62.9904 7.37694 62.8935 7.37694L62.5058 7.28524C62.4573 7.28524 62.4573 7.28524 62.4088 7.28524H62.3119L62.118 7.23939L61.9241 7.19354C61.8757 7.19354 61.7787 7.19354 61.7302 7.19354H61.3425H60.9547C60.9063 7.19354 60.8093 7.19354 60.7609 7.19354H60.567H60.3731H60.2762C60.2277 7.19354 60.2277 7.19354 60.1792 7.19354L59.7915 7.28524C59.743 7.28524 59.6461 7.33109 59.5976 7.33109L59.4037 7.37694L59.2099 7.42279C59.1614 7.42279 59.1129 7.46864 59.016 7.46864L58.6767 7.60619L58.3374 7.74374C58.289 7.78959 58.2405 7.78959 58.1436 7.83544L57.9982 7.92714C57.9012 7.97299 57.7558 8.06469 57.6589 8.11054L57.3196 8.29394L57.1742 8.38564L57.0288 8.47734L56.738 8.70659C56.641 8.79829 56.5441 8.84414 56.4472 8.93584C56.2533 9.07339 56.0594 9.25679 55.8655 9.44019C55.09 10.1279 54.4599 10.9074 53.8783 11.7327C53.2967 12.558 52.7635 13.4291 52.3273 14.3461C51.8911 15.2631 51.5033 16.1801 51.2125 17.143C50.8732 18.1058 50.6309 19.0687 50.437 20.0774C50.2431 21.0861 50.0977 22.049 50.0008 23.0577C49.9039 24.0664 49.8554 25.0751 49.8554 26.0838C49.8554 27.0925 49.9039 28.1012 50.0008 29.1099C50.0977 30.1186 50.2431 31.1273 50.437 32.0901C50.8248 34.0617 51.4549 35.9874 52.3758 37.8214C52.812 38.7384 53.3451 39.6095 53.9268 40.4348C54.5084 41.2601 55.187 42.0396 55.914 42.7273C56.1079 42.9107 56.3017 43.0483 56.4956 43.2317C56.5926 43.3234 56.6895 43.3692 56.7864 43.4609L57.0772 43.6902L57.2226 43.7819L57.3681 43.8736L57.7073 44.057C57.8043 44.1028 57.9497 44.1945 58.0466 44.2404L58.192 44.3321C58.2405 44.3779 58.289 44.3779 58.3859 44.4238L58.7252 44.5613L59.0645 44.6989C59.1129 44.6989 59.1614 44.7447 59.2583 44.7447L59.4522 44.7906L59.6461 44.8364C59.6946 44.8364 59.743 44.8823 59.84 44.8823L60.2277 44.974C60.2762 44.974 60.2762 44.974 60.3247 44.974H60.4216H60.6155H60.8093C60.8578 44.974 60.9547 44.974 61.0032 44.974L61.3425 44.8823Z" fill="white"/>
<path d="M60.2225 50.7855H42.5616C33.0851 50.7855 25.4272 39.4417 25.4272 25.4662C25.4272 11.4907 33.1329 0.146973 42.5616 0.146973H60.2225C50.7459 0.146973 43.0881 11.4907 43.0881 25.4662C43.0881 39.4417 50.7459 50.7855 60.2225 50.7855Z" fill="#FF7931"/>
<path d="M45.0713 37.3424C44.5933 36.0254 44.2109 34.6175 43.8764 33.2096C43.6374 31.9834 43.3984 30.7572 43.255 29.4855C43.1116 28.2593 43.0638 27.0331 43.0638 25.7614C43.0638 25.6706 43.0638 25.5798 43.0638 25.4889C43.0638 24.2627 43.1116 23.0365 43.255 21.8103C43.3984 20.2207 43.6852 18.722 44.0198 17.2233C45.358 11.4101 48.1302 6.55059 51.6671 3.50774C52.5752 2.73567 53.5789 2.05443 54.5826 1.55486C55.3951 1.14612 56.2554 0.782793 57.1158 0.555715C57.9283 0.328636 58.7886 0.192388 59.6489 0.146973C59.8401 0.146973 60.0313 0.146973 60.2225 0.146973H42.5859C42.3947 0.146973 42.2035 0.146973 42.0123 0.146973C41.152 0.192388 40.3395 0.328636 39.4792 0.555715C38.6188 0.782793 37.7585 1.14612 36.946 1.55486C35.9423 2.09985 34.9386 2.73567 34.0305 3.50774C30.4936 6.55059 27.7214 11.4101 26.3832 17.2233C26.0486 18.6766 25.8096 20.2207 25.6184 21.8103C25.5228 22.9911 25.4272 24.2173 25.4272 25.4889C25.4272 25.5798 25.4272 25.6706 25.4272 25.7614C25.4272 27.0331 25.5228 28.2593 25.6184 29.4855C25.7618 30.7572 25.953 32.0288 26.2398 33.2096C26.5743 34.6629 26.9567 36.0254 27.4347 37.3424C30.3024 45.3356 35.9901 50.7855 42.5381 50.7855H60.1747C53.6267 50.7855 47.939 45.3356 45.0713 37.3424Z" fill="#FF7931"/>
<path d="M61.4282 51.1705C61.0819 51.1705 60.686 51.1705 60.3396 51.1248C57.7172 50.9877 55.0947 51.0791 52.4722 51.0334C52.0269 50.9877 51.631 50.8962 51.2352 50.7591C54.0556 50.8505 56.1833 50.8962 59.1026 50.9419C58.7563 50.8962 58.4099 50.8048 58.0635 50.7133C57.8656 50.6676 57.5192 50.7133 57.3213 50.7133C54.2535 50.6219 51.3342 50.5305 50.2456 50.4847C49.8497 50.3476 49.4539 50.1647 49.058 49.9818C51.8784 50.119 54.0061 50.2104 56.876 50.3018C56.5296 50.1647 56.1833 50.0275 55.8864 49.8446C55.6885 49.7989 55.3421 49.7989 55.1442 49.7989C52.0764 49.6618 49.058 49.4789 48.1179 49.4332C47.7221 49.2046 47.3757 48.976 46.9799 48.7474C49.7508 48.9302 51.9279 49.0674 54.7483 49.2046C54.4514 49.0217 54.1051 48.7931 53.8082 48.6102C53.6103 48.5188 53.3134 48.5645 53.066 48.5645C50.0477 48.3816 47.0293 48.153 46.0397 48.1073C45.6934 47.833 45.347 47.5129 45.0006 47.2386C47.7716 47.4672 49.8497 47.6044 52.7196 47.833C52.4227 47.6044 52.1258 47.33 51.829 47.0557C51.631 46.9643 51.3342 47.01 51.0868 47.01C48.0684 46.7814 45.2975 46.5071 44.11 46.4156C43.7636 46.0956 43.4667 45.7298 43.1698 45.364C46.2871 45.6384 48.5138 45.867 50.8393 46.0499C50.5425 45.7755 50.2951 45.4555 50.0477 45.1354C46.8809 44.8154 45.0006 44.6325 42.4276 44.4039C42.1307 43.9924 41.8339 43.581 41.5865 43.1695C44.7037 43.4895 46.8809 43.7181 49.157 43.9924C48.9096 43.6724 48.6622 43.3066 48.4643 42.9409C45.347 42.6208 43.4172 42.3922 40.8937 42.0722C40.6463 41.615 40.3989 41.1578 40.1515 40.7006C42.774 41.0206 45.0006 41.2949 47.6726 41.615C47.4747 41.2492 47.2767 40.8377 47.0788 40.4263C44.011 40.0605 42.1307 39.8319 39.6072 39.4661C39.4093 38.9632 39.1619 38.4603 38.964 37.9573C41.5865 38.3231 43.7141 38.5974 46.3861 38.9632C46.1882 38.5517 46.0397 38.0945 45.8913 37.683C42.873 37.2715 40.8937 36.9972 38.5187 36.6772C38.3207 36.1285 38.1723 35.6256 38.0239 35.077C40.6958 35.4884 42.6256 35.7628 45.347 36.1285C45.1986 35.6713 45.0996 35.2141 44.9511 34.7569C42.3782 34.3912 40.3494 34.0711 37.628 33.6596C37.4796 33.111 37.3806 32.5166 37.2816 31.9223C40.102 32.3795 41.6359 32.6081 44.5553 33.0653C44.4563 32.5623 44.3574 32.1051 44.3079 31.6022C41.3391 31.145 39.6072 30.8707 37.0837 30.4592C36.9848 29.8648 36.9353 29.2705 36.8858 28.6761C39.9536 29.179 41.2896 29.4076 44.011 29.8648C43.9615 29.3619 43.9121 28.859 43.8626 28.3561C40.8937 27.8531 39.2114 27.5788 36.7868 27.1673C36.7868 26.7101 36.7868 26.2987 36.7868 25.8414C36.7868 25.6586 36.7868 25.4757 36.7868 25.2928C42.675 26.2987 42.675 26.2987 43.8131 26.5273C43.8131 26.2987 43.8131 26.0701 43.8131 25.8414C43.8131 25.5214 43.8131 25.2471 43.8131 24.927C42.3782 24.6984 38.4197 24.0126 36.8363 23.7383C36.8858 23.144 36.9353 22.5039 36.9848 21.9095C39.7062 22.3667 41.7349 22.7325 43.9121 23.0982C43.9615 22.5953 44.011 22.0924 44.0605 21.5895C41.0917 21.0865 39.7557 20.8579 37.1827 20.4464C37.2816 19.8521 37.3806 19.2577 37.4796 18.7091C37.529 18.4805 37.5785 18.2061 37.628 17.9775C37.5785 18.2061 37.529 18.4348 37.4796 18.7091C40.4484 19.212 41.3885 19.3492 44.3079 19.8521C44.4069 19.3492 44.5058 18.892 44.6048 18.389C42.1802 17.9775 40.2505 17.6575 37.8259 17.2917C37.9744 16.7431 38.1228 16.1945 38.2713 15.6458C41.0422 16.103 42.3782 16.2859 45.0006 16.6974C45.1491 16.2402 45.248 15.783 45.3965 15.3258C43.1698 14.96 40.9432 14.64 38.7166 14.2742C38.9145 13.7713 39.1124 13.2226 39.3104 12.7197C42.0318 13.1312 43.7141 13.3598 45.9408 13.7255C46.0892 13.3141 46.2871 12.8569 46.4356 12.4454C43.5657 12.0339 41.4875 11.7139 39.8052 11.4853C40.0526 10.9823 40.2505 10.5251 40.5474 10.0679C43.2688 10.4337 44.7037 10.6623 47.1283 10.9823C47.3262 10.5708 47.5241 10.2051 47.7715 9.7936C45.0501 9.42783 43.3678 9.19923 41.2401 8.92491C41.4875 8.4677 41.7844 8.05622 42.0813 7.64474C42.1802 7.46186 42.3287 7.3247 42.4276 7.14182C42.2792 7.3247 42.1802 7.46186 42.0813 7.64474C44.7532 7.96478 46.3366 8.19338 48.5632 8.4677C48.8106 8.10194 49.058 7.7819 49.256 7.41614C46.584 7.0961 44.8027 6.86749 42.774 6.63889C43.0709 6.27313 43.3678 5.90737 43.7141 5.5416C46.3366 5.81593 47.9695 5.99881 50.1466 6.22741C50.394 5.90737 50.6909 5.58732 50.9383 5.313C48.3158 5.03868 46.485 4.8558 44.5553 4.67292C44.9017 4.35287 45.248 4.03283 45.5944 3.75851C48.2169 3.98711 49.8497 4.16999 51.9774 4.35287C52.2743 4.07855 52.5712 3.84995 52.8681 3.57563C50.2456 3.34702 48.5138 3.20986 46.5345 3.02698C46.8809 2.75266 47.2767 2.52406 47.6231 2.29545C50.1961 2.47834 51.7795 2.6155 53.9566 2.75266C54.2535 2.52406 54.5999 2.34118 54.8968 2.1583C52.3238 1.97541 50.6414 1.88397 48.6127 1.74681C49.0086 1.56393 49.4044 1.38105 49.8003 1.19817C52.3733 1.33533 53.9566 1.42677 56.0843 1.51821C56.4307 1.38105 56.7276 1.19817 57.0739 1.10672C54.5009 0.969564 52.8186 0.923844 50.8393 0.832403C51.2352 0.695242 51.6805 0.603803 52.0764 0.512362C54.6494 0.558083 56.2327 0.649521 58.3109 0.695241C58.6573 0.6038 59.0037 0.512359 59.35 0.466639C56.777 0.420919 55.1442 0.3752 53.1155 0.32948C53.5608 0.28376 54.0556 0.238037 54.5009 0.238037H52.967C43.1698 0.238037 35.2529 11.6681 35.2529 25.75C35.2529 39.8319 43.2193 51.262 52.967 51.262H54.5009L53.6598 51.2163C56.777 51.1705 58.9542 51.1705 61.4282 51.1705Z" fill="#48494D"/>
<path d="M33.6202 25.659C33.6202 11.5771 41.5866 0.146973 51.3343 0.146973H49.8004C49.3056 0.146973 48.8108 0.192692 48.3654 0.238412C45.1492 0.284132 42.9721 0.329854 40.9433 0.375575C40.597 0.421295 40.2506 0.512736 39.9043 0.604177C43.4174 0.512736 45.9409 0.467015 47.2769 0.421294C46.881 0.512735 46.4357 0.604178 46.0399 0.741339C42.8236 0.83278 40.5475 0.92422 38.6672 1.01566C38.3209 1.15282 37.9745 1.28998 37.6776 1.42715C40.7454 1.28998 43.0215 1.19854 45.0008 1.1071C44.6049 1.28998 44.2091 1.42715 43.8132 1.65575C40.6465 1.79291 38.3703 1.93007 36.4901 2.02151C36.1932 2.20439 35.8468 2.38727 35.55 2.61587C38.7662 2.43299 40.8444 2.29583 42.8731 2.15867C42.4773 2.38727 42.1309 2.61587 41.7845 2.8902C38.6178 3.1188 36.4406 3.25596 34.5109 3.39312C34.214 3.62172 33.9171 3.89605 33.6202 4.17037C36.787 3.89605 38.9641 3.75888 40.8939 3.62172C40.5475 3.89604 40.2011 4.21609 39.8548 4.53613C36.7375 4.81045 34.4614 4.99333 32.6306 5.17622C32.3337 5.45054 32.0863 5.77058 31.8389 6.09062C35.0057 5.77058 37.1333 5.5877 39.0136 5.40482C38.7167 5.77058 38.3704 6.13635 38.0735 6.50211C34.9562 6.82215 32.9275 7.00503 30.8988 7.23363C30.6514 7.55368 30.404 7.91944 30.206 8.2852C33.1749 7.96516 35.4015 7.73656 37.3313 7.50796C37.0344 7.91944 36.787 8.33092 36.4901 8.78813C33.3728 9.15389 31.5915 9.33677 29.4143 9.61109C29.2164 9.97686 28.969 10.3883 28.7711 10.7998C31.8884 10.4341 33.8676 10.1597 35.8468 9.93114C35.5994 10.3883 35.352 10.8455 35.1541 11.3485C32.0863 11.7142 30.0081 11.9886 28.1278 12.2629C27.9299 12.6744 27.7815 13.0858 27.633 13.5431C30.5524 13.1316 32.8285 12.8572 34.6098 12.6286C34.4119 13.1316 34.214 13.6345 34.016 14.1831C30.7503 14.6403 28.2763 15.0061 27.0888 15.1433C26.9403 15.6005 26.7919 16.0577 26.6929 16.5149C29.6123 16.1034 31.7894 15.7833 33.6202 15.509C33.4718 16.0577 33.3233 16.6063 33.1749 17.155C30.206 17.6122 28.1773 17.8865 26.2971 18.2065C26.1981 18.6637 26.0991 19.1667 26.0002 19.6696C29.2659 19.1667 31.641 18.8009 32.8285 18.618C32.7296 19.2124 32.6306 19.761 32.5316 20.3554C29.6123 20.8126 27.732 21.1326 25.7528 21.4527C25.7033 21.9556 25.6538 22.4585 25.6043 22.9614C28.8206 22.4128 31.4431 22.0013 32.3337 21.8642C32.2842 22.4585 32.2347 23.0529 32.1853 23.693C29.068 24.2416 26.5939 24.6531 25.5054 24.836C25.5054 25.156 25.5054 25.4304 25.5054 25.7504C25.5054 25.979 25.5054 26.2076 25.5054 26.4362C27.732 26.0704 29.9092 25.659 32.1358 25.2932C32.1358 25.4304 32.1358 25.6132 32.1358 25.7504C32.1358 26.2076 32.1358 26.7105 32.1853 27.1677C28.969 27.7164 26.4455 28.1736 25.6043 28.3107C25.6538 28.8137 25.7033 29.3166 25.7528 29.8195C27.732 29.4995 29.9092 29.1337 32.2842 28.7222C32.3337 29.3166 32.3832 29.9109 32.4822 30.5053C31.2946 30.6882 28.9195 31.0997 26.0002 31.6026C26.0991 32.1055 26.1486 32.5627 26.2476 33.0657C29.2164 32.5627 31.2946 32.2427 32.6801 32.0141C32.779 32.6085 32.878 33.1571 33.0264 33.7515C29.9586 34.2544 27.4846 34.6659 26.6434 34.7573C26.7424 35.2145 26.8908 35.6717 27.0393 36.1289C29.9586 35.6717 32.0863 35.3517 33.3728 35.1231C33.5212 35.6717 33.6697 36.2204 33.8676 36.7233C31.0472 37.1348 29.5628 37.3634 27.5836 37.6834C27.732 38.1406 27.9299 38.5521 28.0784 38.9636C30.9977 38.5521 32.977 38.2321 34.3129 38.0492C34.5109 38.5521 34.7088 39.055 34.9562 39.558C32.2347 39.9694 30.404 40.198 28.7711 40.4266C28.969 40.8381 29.1669 41.2039 29.3649 41.6154C32.2347 41.2039 34.3129 40.9296 35.55 40.7467C35.7974 41.2039 36.0448 41.6611 36.2922 42.1183C36.3911 42.3012 36.4901 42.4841 36.6385 42.6669C36.5396 42.4841 36.3911 42.3012 36.2922 42.1183C33.5707 42.4841 31.6905 42.7127 30.1566 42.9413C30.404 43.307 30.6019 43.6728 30.8493 43.9928C33.7192 43.6271 35.7974 43.3985 36.9354 43.2156C37.2323 43.6271 37.4797 44.0386 37.7766 44.45C35.2531 44.7701 33.3728 44.953 31.6905 45.1358C31.9379 45.4559 32.2347 45.7759 32.4822 46.0503C35.1046 45.7759 36.8859 45.593 38.5188 45.4102C38.8157 45.7759 39.162 46.1417 39.4589 46.4617C36.8364 46.7361 35.1046 46.9189 33.4718 47.0561C33.7686 47.3304 34.0655 47.6047 34.3624 47.8334C36.9354 47.6047 38.8157 47.4219 40.3496 47.2847C40.6959 47.6047 41.0423 47.8791 41.3887 48.1534C41.4876 48.1991 41.5371 48.2906 41.6361 48.3363C41.5371 48.2906 41.4876 48.1991 41.3887 48.1534C38.7662 48.382 37.0344 48.5192 35.451 48.6563C35.7479 48.8849 36.0942 49.0678 36.3911 49.2507C38.9641 49.0678 40.7949 48.9306 42.3288 48.7935C42.6752 49.0221 43.071 49.2507 43.4669 49.4793C40.6465 49.6622 38.6178 49.7993 37.5787 49.845C37.925 49.9822 38.2219 50.1651 38.5683 50.3022C41.1413 50.1651 42.9721 50.0736 44.4565 49.9822C44.8523 50.1651 45.2482 50.3023 45.644 50.4851C42.8731 50.6223 40.7949 50.668 39.7558 50.7137C40.1022 50.8052 40.4485 50.8966 40.7949 50.9423C43.3184 50.8966 45.0997 50.8052 46.6336 50.7595C47.0295 50.8509 47.4748 50.9423 47.8706 51.0338C45.0997 51.0795 43.1205 51.1252 42.0319 51.1252C42.3783 51.1709 42.7741 51.1709 43.1205 51.1709H43.17C45.8914 51.1709 47.8212 51.1709 48.9592 51.1252C49.2066 51.1252 49.5035 51.1709 49.7509 51.1709H51.2848C41.5371 51.1709 33.6202 39.7408 33.6202 25.659Z" fill="#48494D"/>
<path d="M88.2274 16.3868C92.3414 14.5679 93.8283 10.6571 93.8779 10.4297L94.4727 8.7926H66.9141L68.401 10.748C69.6898 12.476 70.7306 14.386 71.4246 16.3868L71.6724 17.1144L71.8707 17.933C72.3167 19.661 72.5646 21.48 72.5646 23.2535C72.5646 23.3444 72.5646 23.4808 72.5646 23.5718V24.2994L72.515 25.0724C72.3663 26.9824 71.8706 28.8923 71.1767 30.7113L70.9289 31.3479L70.6315 31.9391C69.6898 33.9854 71.3254 35.8954 69.7393 37.5779L67.9054 39.6697H73.1594H73.2089C80.0986 39.124 82.3786 33.1214 82.4777 32.8486L82.6264 32.3938H82.676C89.5657 31.8481 91.8457 25.8455 91.9448 25.5727L92.3414 24.5267C97.8432 23.208 99.6771 18.2058 99.7763 17.9784L100.371 16.3414H88.2274V16.3868Z" fill="white"/>
<path d="M65.5757 8.7926C66.8782 10.6782 67.9396 12.7524 68.7114 14.968H93.8457C99.7795 14.4495 101.709 8.7926 101.709 8.7926H65.5757Z" fill="#FF7931"/>
<path d="M69.5903 32.2592H84.4172C90.3966 31.7406 92.3411 26.0837 92.3411 26.0837H70.9515C70.757 28.2522 70.3195 30.3264 69.5903 32.2592Z" fill="#FF7931"/>
<path d="M65.5757 38.4346H77.49C83.6474 38.0198 85.6498 33.4943 85.6498 33.4943H69.6806C68.6294 35.2668 67.2277 36.9638 65.5757 38.4346Z" fill="#FF7931"/>
<path d="M70.2782 23.2836C70.2782 23.3778 70.2782 23.5193 70.2782 23.6135H89.6855C95.7288 23.095 97.6942 17.4381 97.6942 17.4381H69.5903C70.0325 19.2766 70.2782 21.2565 70.2782 23.2836Z" fill="#FF7931"/>
</symbol><symbol id="icon-magnifier" viewBox="0 0 23 24">
<path d="M22.7251 22.2056L17.2663 16.8577C19.0463 15.0556 20.1737 12.6142 20.1737 9.88208C20.1737 4.41787 15.6643 0 10.0868 0C4.50941 0 0 4.41787 0 9.88208C0 15.3463 4.50941 19.7642 10.0868 19.7642C12.2229 19.7642 14.2403 19.0666 15.9016 17.9621L21.479 23.4263C21.6571 23.6007 21.8944 23.6589 22.1317 23.6589C22.3691 23.6589 22.6064 23.6007 22.7844 23.4263C23.0811 23.0776 23.0811 22.5544 22.7251 22.2056ZM1.78003 9.88208C1.78003 5.40608 5.5181 1.7439 10.0868 1.7439C14.6556 1.7439 18.3937 5.40608 18.3937 9.88208C18.3937 14.3581 14.6556 18.0203 10.0868 18.0203C5.5181 18.0203 1.78003 14.3581 1.78003 9.88208Z" fill="#48494D"/>
</symbol><symbol id="icon-rubble" viewBox="0 0 14 17">
<path d="M1.97949 8.42396C1.97949 5.79865 1.97949 3.17334 1.97949 0.373008C4.59557 0.373008 6.9642 0.267998 9.33281 0.408014C11.8075 0.548031 13.6812 2.85831 13.6104 5.37861C13.5397 7.8289 11.6307 9.96415 9.15605 10.0692C7.38843 10.1742 5.65615 10.1042 3.81782 10.1042L1.97949 8.42396ZM3.81782 1.9832C3.81782 4.22347 3.81782 6.32372 3.81782 8.49397C4.2774 8.52898 5.65615 8.49397 6.00968 8.49397C6.99954 8.49397 8.3783 8.52897 9.15605 8.42396C10.8176 8.24894 12.0196 6.81378 11.9842 5.20359C11.9489 3.52339 10.6762 2.08821 8.94392 1.9832C7.28236 1.91319 5.58544 1.9832 3.81782 1.9832Z"/>
<path d="M7.17631 10.4892C6.64602 10.4892 6.08038 10.4892 5.51474 10.4892C4.9491 10.4892 4.38347 10.4892 3.81783 10.4892V9.78915C4.38347 9.78915 4.9491 9.78915 5.51474 9.78915C6.75208 9.78915 7.95408 9.82416 9.15606 9.75415C11.4186 9.61413 13.2216 7.72391 13.2569 5.37863C13.3276 2.96335 11.5247 0.898098 9.29746 0.758081C7.67125 0.653069 6.04503 0.688071 4.34812 0.723075C3.67642 0.723075 3.00472 0.758081 2.33302 0.758081V8.45899H1.62598V0.0579981H1.9795C2.79261 0.0579981 3.57036 0.057996 4.34812 0.0229918C6.08039 -0.0120123 7.7066 -0.0120102 9.36817 0.0579981C11.9842 0.198015 14.0347 2.61331 13.9993 5.37863C13.9286 8.07395 11.8428 10.2792 9.22675 10.4192C8.5197 10.4892 7.84801 10.4892 7.17631 10.4892ZM7.17631 8.84404C6.82279 8.84404 6.43391 8.84404 6.00969 8.84404C5.86828 8.84404 5.58546 8.84404 5.26729 8.84404C4.70165 8.84404 4.06531 8.84404 3.78249 8.84404L3.46431 8.80903V1.59818H3.81783C4.38347 1.59818 4.91377 1.59818 5.44406 1.59818C6.64604 1.59818 7.81267 1.56318 8.9793 1.63318C10.853 1.7382 12.3378 3.31339 12.3731 5.20361C12.4085 7.02383 10.9944 8.59901 9.22675 8.77403C8.76717 8.84404 8.06012 8.84404 7.17631 8.84404ZM5.86827 8.14396C5.93897 8.14396 5.97433 8.14396 6.00969 8.14396C7.49449 8.17896 8.5197 8.14396 9.12069 8.10895C10.5348 7.96894 11.6661 6.70878 11.6307 5.23861C11.6307 3.69843 10.4287 2.43828 8.90859 2.36827C7.77731 2.29827 6.64604 2.33327 5.44406 2.33327C5.01983 2.33327 4.59558 2.33327 4.17136 2.33327V8.14396C4.48953 8.14396 4.91377 8.14396 5.26729 8.14396C5.51476 8.14396 5.72686 8.14396 5.86827 8.14396Z"/>
<path d="M4.4542 8.49402H0.388672V10.1392H4.4542V8.49402Z"/>
<path d="M4.77258 10.4542H0V8.10889H4.77258V10.4542ZM0.742392 9.75409H4.10087V8.80897H0.742392V9.75409Z"/>
<path d="M7.74199 11.7494H0.388672V13.3946H7.74199V11.7494Z"/>
<path d="M8.09552 13.7447H0.0351562V11.3994H8.09552V13.7447ZM0.742205 13.0446H7.38848V12.0995H0.742205V13.0446Z"/>
<path d="M3.81782 7.47888H1.97949V16.65H3.81782V7.47888Z"/>
<path d="M4.17136 17.0001H1.62598V7.12891H4.17136V17.0001ZM2.33302 16.3H3.46431V7.82899H2.33302V16.3Z"/>
</symbol><symbol id="icon-shape" viewBox="0 0 9 13">
<path fill-rule="evenodd" clip-rule="evenodd" d="M4.25011 0L4.25011 10.9417L1.29455 7.90833L0.555664 8.66667L4.77789 13L9.00011 8.66667L8.26122 7.90833L5.30566 10.9417L5.30566 0H4.25011Z" fill="#48494D"/>
</symbol><symbol id="icon-snowflake" viewBox="0 0 36 32">
<path d="M31.3659 19.0904L30.8266 17.0477L25.2965 18.5077L22.8585 17.047V13.6654L25.4823 12.1424L31.1395 13.6414L31.6802 11.5987L28.068 10.6416L31.6788 8.54562L30.6182 6.71818L27.0495 8.78964L27.9832 5.25144L25.9404 4.71223L24.4691 10.2875L21.8006 11.8364L18.8844 10.1531V7.13661L23.0146 3.03434L21.5262 1.53495L18.8844 4.15888V0H16.7715V4.13066L14.1782 1.53757L12.6843 3.03147L16.7715 7.1183V10.153L13.8547 11.8369L11.2434 10.3286L11.2437 10.3285L9.76079 4.71206L7.71805 5.25127L8.66548 8.83955L5.05877 6.75615L4.0016 8.5857L7.58777 10.6572L4.02228 11.5985L4.56149 13.6413L10.178 12.1584L10.1764 12.1525L12.7981 13.6668V17.1119L10.1647 18.6404L4.56141 17.161L4.02219 19.2038L7.57684 20.1423L4 22.2184L5.06062 24.0453L8.67325 21.9486L7.71856 25.5508L9.76062 26.0915L11.2558 20.4498L13.9203 18.9034L16.7715 20.5499V23.6842L12.6843 27.771L14.1782 29.2649L16.7715 26.6718V30.8028H18.8844V26.6435L21.5256 29.2676L23.0153 27.7682L18.8844 23.6642V20.5499L21.7921 18.871L24.4557 20.467L25.6151 25.9263L27.6813 25.4876L26.93 21.9495L30.2922 23.964L31.3775 22.151L27.8281 20.0244L31.3659 19.0904ZM20.7456 17.0353L17.828 18.7196L14.9111 17.0353V13.6672L17.828 11.9828L20.7456 13.6672V17.0353Z" fill="#6CA7FF"/>
</symbol><symbol id="icon-spare-parts" viewBox="0 0 68 68">
<g filter="url(#filter0_d)">
<circle cx="34" cy="30" r="30" fill="#FF7931"/>
<circle cx="33.691" cy="30.0001" r="16.0103" stroke="white" stroke-width="2"/>
<circle cx="33.6909" cy="29.9999" r="7.87494" stroke="white" stroke-width="2"/>
<circle cx="21.4876" cy="30.3699" r="1.84895" fill="white"/>
<circle cx="45.8929" cy="30.3699" r="1.84895" fill="white"/>
<circle cx="43.3048" cy="22.6046" r="1.47916" fill="white"/>
<circle cx="37.3883" cy="18.1669" r="1.47916" fill="white"/>
<circle cx="29.9923" cy="18.1669" r="1.47916" fill="white"/>
<circle cx="24.0758" cy="22.6046" r="1.47916" fill="white"/>
<circle r="1.47916" transform="matrix(-1 0 0 1 43.3055 37.3961)" fill="white"/>
<circle r="1.47916" transform="matrix(-1 0 0 1 37.3885 41.8334)" fill="white"/>
<circle r="1.47916" transform="matrix(-1 0 0 1 29.9915 41.8334)" fill="white"/>
<circle r="1.47916" transform="matrix(-1 0 0 1 24.075 37.3961)" fill="white"/>
</g>

</symbol><symbol id="icon-spares" viewBox="0 0 60 60">
<circle cx="30" cy="30" r="30" fill="#FF7931"/>
<circle cx="29.691" cy="30.0001" r="16.0103" stroke="white" stroke-width="2"/>
<circle cx="29.6909" cy="29.9999" r="7.87494" stroke="white" stroke-width="2"/>
<circle cx="17.4876" cy="30.3699" r="1.84895" fill="white"/>
<circle cx="41.8929" cy="30.3699" r="1.84895" fill="white"/>
<circle cx="39.3048" cy="22.6046" r="1.47916" fill="white"/>
<circle cx="33.3883" cy="18.1669" r="1.47916" fill="white"/>
<circle cx="25.9923" cy="18.1669" r="1.47916" fill="white"/>
<circle cx="20.0758" cy="22.6046" r="1.47916" fill="white"/>
<circle r="1.47916" transform="matrix(-1 0 0 1 39.3055 37.3961)" fill="white"/>
<circle r="1.47916" transform="matrix(-1 0 0 1 33.3885 41.8334)" fill="white"/>
<circle r="1.47916" transform="matrix(-1 0 0 1 25.9915 41.8334)" fill="white"/>
<circle r="1.47916" transform="matrix(-1 0 0 1 20.075 37.3961)" fill="white"/>
</symbol><symbol id="icon-sun" viewBox="0 0 31 31">
<path d="M6.52246 8.51569C7.07749 9.06931 7.97061 9.07776 8.52423 8.52414C9.07363 7.97474 9.07786 7.08585 8.51437 6.52237L6.54218 4.55018C5.98574 3.99374 5.09544 3.98529 4.54041 4.54032C3.98961 5.08971 3.98538 5.9772 4.55027 6.54209L6.52246 8.51569Z" fill="#FF7931"/>
<path d="M29.5787 14.0914H26.7894C26.002 14.0914 25.3652 14.7169 25.3652 15.5001C25.3652 16.2792 25.9893 16.9088 26.7894 16.9088H29.5787C30.3661 16.9088 31.0001 16.2848 31.0001 15.5001C31.0001 14.7225 30.3746 14.0914 29.5787 14.0914Z" fill="#FF7931"/>
<path d="M5.63483 15.5001C5.63483 14.7225 5.00936 14.0914 4.21203 14.0914H1.42139C0.635327 14.0914 0 14.7169 0 15.5001C0 16.2792 0.624057 16.9088 1.42139 16.9088H4.21203C4.99809 16.9088 5.63483 16.2848 5.63483 15.5001Z" fill="#FF7931"/>
<path d="M15.5001 7.0437C10.833 7.0437 7.04785 10.8289 7.04785 15.4959C7.04785 20.163 10.833 23.9482 15.5001 23.9482C20.1657 23.9482 23.9523 20.163 23.9523 15.4959C23.9523 10.8289 20.1657 7.0437 15.5001 7.0437ZM15.5001 21.1308C12.3883 21.1308 9.86527 18.6078 9.86527 15.4959C9.86527 12.3841 12.3883 9.86111 15.5001 9.86111C18.6119 9.86111 21.1349 12.3841 21.1349 15.4959C21.1349 18.6078 18.6119 21.1308 15.5001 21.1308Z" fill="#FF7931"/>
<path d="M6.52237 22.4856L4.55018 24.4578C3.99374 25.0142 3.98529 25.9045 4.54032 26.4595C5.09112 27.0089 5.97861 27.0132 6.54209 26.4497L8.51428 24.4775C9.07072 23.921 9.07917 23.0307 8.52414 22.4757C7.97334 21.9235 7.08585 21.9221 6.52237 22.4856Z" fill="#FF7931"/>
<path d="M24.4776 8.5157L26.4498 6.5421C27.0062 5.98566 27.0119 5.09536 26.4596 4.54033C25.9074 3.99094 25.0214 3.98671 24.4579 4.55019L22.4857 6.52238C21.9292 7.07882 21.9222 7.97053 22.4758 8.52415C23.028 9.07355 23.9141 9.07778 24.4776 8.5157Z" fill="#FF7931"/>
<path d="M15.5 25.3652C14.721 25.3652 14.0913 25.9907 14.0913 26.7894V29.5787C14.0913 30.3661 14.7168 31.0001 15.5 31.0001C16.279 31.0001 16.9087 30.3774 16.9087 29.5787V26.7894C16.9087 26.002 16.2847 25.3652 15.5 25.3652Z" fill="#FF7931"/>
<path d="M24.4777 22.4857C23.9212 21.9292 23.0309 21.9222 22.4759 22.4758C21.9265 23.028 21.9209 23.9141 22.4858 24.4776L24.458 26.4498C25.0144 27.0062 25.9047 27.0119 26.4597 26.4596C27.0105 25.9102 27.0148 25.0214 26.4499 24.4579L24.4777 22.4857Z" fill="#FF7931"/>
<path d="M15.5 5.63483C16.279 5.63483 16.9087 5.01077 16.9087 4.21203V1.42279C16.9087 0.636735 16.2847 0 15.5 0C14.721 0 14.0913 0.625466 14.0913 1.42279V4.21203C14.0913 4.99809 14.7168 5.63483 15.5 5.63483Z" fill="#FF7931"/>
</symbol><symbol id="icon-tools" viewBox="0 0 60 60">
<circle cx="30" cy="30" r="30" fill="#FF7931"/>
<rect x="17.7012" y="29.4536" width="25.2165" height="3.56701" stroke="white" stroke-width="2"/>
<path d="M26.0862 25.598L27.713 20.1753H33.2398L34.5954 25.598H26.0862Z" stroke="white" stroke-width="2"/>
<path d="M26.1217 36.8761L27.6939 41.6802H32.9245L34.4967 36.8761H26.1217Z" stroke="white" stroke-width="2"/>
<mask id="path-5-inside-1" fill="white">
<path d="M27.252 4.94849H33.3659V17.1764H27.252V4.94849Z"/>
</mask>
<path d="M27.252 4.94849V2.94849H25.252V4.94849H27.252ZM33.3659 4.94849H35.3659V2.94849H33.3659V4.94849ZM33.3659 17.1764V19.1764H35.3659V17.1764H33.3659ZM27.252 17.1764H25.252V19.1764H27.252V17.1764ZM27.252 6.94849H33.3659V2.94849H27.252V6.94849ZM31.3659 4.94849V17.1764H35.3659V4.94849H31.3659ZM33.3659 15.1764H27.252V19.1764H33.3659V15.1764ZM29.252 17.1764V4.94849H25.252V17.1764H29.252Z" fill="white" mask="url(#path-5-inside-1)"/>
<mask id="path-7-inside-2" fill="white">
<path d="M27.252 44.4241H33.3659V55.1235H27.252V44.4241Z"/>
</mask>
<path d="M27.252 44.4241V42.4241H25.252V44.4241H27.252ZM33.3659 44.4241H35.3659V42.4241H33.3659V44.4241ZM33.3659 55.1235V57.1235H35.3659V55.1235H33.3659ZM27.252 55.1235H25.252V57.1235H27.252V55.1235ZM27.252 46.4241H33.3659V42.4241H27.252V46.4241ZM31.3659 44.4241V55.1235H35.3659V44.4241H31.3659ZM33.3659 53.1235H27.252V57.1235H33.3659V53.1235ZM29.252 55.1235V44.4241H25.252V55.1235H29.252Z" fill="white" mask="url(#path-7-inside-2)"/>
<circle cx="30.3089" cy="8.65972" r="1.23711" fill="white"/>
<circle cx="30.3089" cy="51.3404" r="1.23711" fill="white"/>
</symbol><symbol id="icon-tyres" viewBox="0 0 60 60">
<circle cx="30" cy="30" r="30" fill="#FF7931"/>
<path d="M30.6183 50.1031C41.3793 50.1031 50.1029 41.3796 50.1029 30.6186C50.1029 19.8576 41.3793 11.134 30.6183 11.134C19.8573 11.134 11.1338 19.8576 11.1338 30.6186C11.1338 41.3796 19.8573 50.1031 30.6183 50.1031Z" stroke="white" stroke-width="2" stroke-miterlimit="10"/>
<path d="M30.6193 45.5909C38.8883 45.5909 45.5916 38.8876 45.5916 30.6186C45.5916 22.3496 38.8883 15.6462 30.6193 15.6462C22.3503 15.6462 15.647 22.3496 15.647 30.6186C15.647 38.8876 22.3503 45.5909 30.6193 45.5909Z" stroke="white" stroke-width="2" stroke-miterlimit="10"/>
<path d="M30.6188 36.703C33.9793 36.703 36.7035 33.9788 36.7035 30.6183C36.7035 27.2579 33.9793 24.5337 30.6188 24.5337C27.2584 24.5337 24.5342 27.2579 24.5342 30.6183C24.5342 33.9788 27.2584 36.703 30.6188 36.703Z" stroke="white" stroke-width="2" stroke-miterlimit="10"/>
<path d="M30.6185 33.9001C32.4687 33.9001 33.9685 32.4003 33.9685 30.5502C33.9685 28.7 32.4687 27.2002 30.6185 27.2002C28.7684 27.2002 27.2686 28.7 27.2686 30.5502C27.2686 32.4003 28.7684 33.9001 30.6185 33.9001Z" stroke="white" stroke-width="2" stroke-miterlimit="10"/>
<path d="M25.9019 16.3984C26.0386 17.0137 26.1754 17.6974 26.1754 18.3127C26.1754 22.6198 22.6887 26.1065 18.3816 26.1065C17.6979 26.1065 17.0826 26.0382 16.4673 25.8331" stroke="white" stroke-width="2" stroke-miterlimit="10"/>
<path d="M35.3365 16.3984C35.1997 17.0137 35.063 17.6974 35.063 18.3127C35.063 22.6198 38.5497 26.1065 42.8568 26.1065C43.5405 26.1065 44.1558 26.0382 44.7711 25.8331" stroke="white" stroke-width="2" stroke-miterlimit="10"/>
<path d="M25.9019 44.8389C26.0386 44.2236 26.1754 43.54 26.1754 42.9247C26.1754 38.6176 22.6887 35.1309 18.3816 35.1309C17.6979 35.1309 17.0826 35.1992 16.4673 35.4043" stroke="white" stroke-width="2" stroke-miterlimit="10"/>
<path d="M35.3365 44.8389C35.1997 44.2236 35.063 43.54 35.063 42.9247C35.063 38.6176 38.5497 35.1309 42.8568 35.1309C43.5405 35.1309 44.1558 35.1992 44.7711 35.4043" stroke="white" stroke-width="2" stroke-miterlimit="10"/>
</symbol><symbol id="icon-view-box" viewBox="0 0 23 21">
<rect x="1" y="1" width="21" height="19" stroke="#48494D" stroke-width="2"/>
<rect x="6" y="5" width="4" height="4" fill="#48494D"/>
<rect x="6" y="12" width="4" height="4" fill="#48494D"/>
<rect x="13" y="5" width="4" height="4" fill="#48494D"/>
<rect x="13" y="12" width="4" height="4" fill="#48494D"/>
</symbol><symbol id="icon-view-list" viewBox="0 0 25 19">
<g opacity="0.3">
<rect x="6" width="19" height="3" rx="1.5" fill="#48494D"/>
<rect x="6" y="8" width="19" height="3" rx="1.5" fill="#48494D"/>
<rect x="6" y="16" width="19" height="3" rx="1.5" fill="#48494D"/>
<rect width="3" height="3" rx="1.5" fill="#48494D"/>
<rect y="8" width="3" height="3" rx="1.5" fill="#48494D"/>
<rect y="16" width="3" height="3" rx="1.5" fill="#48494D"/>
</g>
</symbol></svg>